<?xml version="1.0" encoding="utf-8"?>
<!-- Svg Vector Icons : http://www.onlinewebfonts.com/icon -->
<!DOCTYPE svg PUBLIC "-//W3C//DTD SVG 1.1//EN" "http://www.w3.org/Graphics/SVG/1.1/DTD/svg11.dtd">
<svg version="1.1" xmlns="http://www.w3.org/2000/svg" xmlns:xlink="http://www.w3.org/1999/xlink" x="0px" y="0px" viewBox="0 0 1000 1000" enable-background="new 0 0 1000 1000" xml:space="preserve">
<metadata> Svg Vector Icons : http://www.onlinewebfonts.com/icon </metadata>
<g><path d="M867.5,132.5h-735C64.8,132.5,10,187.3,10,255v490c0,67.7,54.8,122.5,122.5,122.5h735c67.7,0,122.5-54.8,122.5-122.5V255C990,187.3,935.2,132.5,867.5,132.5z M898.1,193.8L500,500L101.9,193.8H898.1z M71.3,745V255l275.6,214.4L74.2,762.7C72.4,757.1,71.3,751.2,71.3,745z M118.9,804.6l276.4-294.5L500,589.3l100.2-79.7l280.9,295C876.7,805.6,123.3,805.6,118.9,804.6z M928.8,745c0,6.2-1.2,12.1-2.9,17.7L653.1,469.4L928.8,255V745z"/></g>
</svg>